# xmcd CD database file
#
# Track frame offsets:
#	217
#	12227
#	24830
#	36617
#	45875
#	58855
#	70027
#	82270
#	93397
#	106130
#	123592
#	131735
#	143137
#	154535
#	169027
#	180955
#	194067
#	205500
#	220725
#	231102
#	242010
#	258365
#	271252
#	287490
#
# Disc length: 4006 seconds
#
# Revision: 0
# Processed by: cddbd v1.4PL0 Copyright (c) Steve Scherf et al.
# Submitted via: CDex 1.50beta9
#
DISCID=4b0fa418
DTITLE=Kevin Prendergast - Favawrites
DYEAR=1900
DGENRE=Country
TTITLE0=Ill Sing About Roscommon
TTITLE1=Where The River Shannon flows
TTITLE2=Good old Day
TTITLE3=Village Of Dromore
TTITLE4=To The Lady We Call Mother
TTITLE5=Three Pubs In Bohla
TTITLE6=Let's Go Back To Maro
TTITLE7=To Susan Phil and Margo - Our Irish Countery Queens
TTITLE8=Galway And You
TTITLE9=My Daddy Died In Birmingham
TTITLE10=I'm Thinking Of A Lady
TTITLE11=Boys From Killybegs
TTITLE12=Three Trophies - For Our County
TTITLE13=Leitrim - The Pride Of The West
TTITLE14=Our House Is A Home
TTITLE15=Galtee Mountain Boy
TTITLE16=No.1 heell In The Country
TTITLE17=Blacksod Bay
TTITLE18=Leona
TTITLE19=My Old Home In Mayo
TTITLE20=Peace To All Nation
TTITLE21=My Young Days When A Boy
TTITLE22=A House Without A Mum Is Not Is Not A Home
TTITLE23=Lovely Old Fintown
EXTD=
EXTT0=
EXTT1=
EXTT2=
EXTT3=
EXTT4=
EXTT5=
EXTT6=
EXTT7=
EXTT8=
EXTT9=
EXTT10=
EXTT11=
EXTT12=
EXTT13=
EXTT14=
EXTT15=
EXTT16=
EXTT17=
EXTT18=
EXTT19=
EXTT20=
EXTT21=
EXTT22=
EXTT23=
PLAYORDER=
